<mxfile host="app.diagrams.net" modified="2024-02-17T02:08:32.187Z" agent="Mozilla/5.0 (Windows NT 10.0; Win64; x64) AppleWebKit/537.36 (KHTML, like Gecko) Chrome/121.0.0.0 Safari/537.36" etag="6EhRtarP1j6A90j3c2uk" version="23.1.5" type="device">
  <diagram id="ZklKFDcdgeRgJ9Y3aHW1" name="PÃ¡gina-1">
    <mxGraphModel dx="1173" dy="579" grid="1" gridSize="10" guides="1" tooltips="1" connect="1" arrows="1" fold="1" page="1" pageScale="1" pageWidth="827" pageHeight="1169" math="0" shadow="0">
      <root>
        <mxCell id="0" />
        <mxCell id="1" parent="0" />
        <mxCell id="7jQxV3AR69AKT-Q-Qrzt-16" value="" style="shape=folder;fontStyle=1;spacingTop=10;tabWidth=40;tabHeight=14;tabPosition=left;html=1;whiteSpace=wrap;" parent="1" vertex="1">
          <mxGeometry x="70" y="800" width="400" height="200" as="geometry" />
        </mxCell>
        <mxCell id="epjKOAO1mZUmwLJU23d0-2" value="CrudService&amp;lt;T,E,K&amp;gt;" style="swimlane;fontStyle=1;align=center;verticalAlign=top;childLayout=stackLayout;horizontal=1;startSize=26;horizontalStack=0;resizeParent=1;resizeParentMax=0;resizeLast=0;collapsible=1;marginBottom=0;whiteSpace=wrap;html=1;" parent="1" vertex="1" collapsed="1">
          <mxGeometry x="100" y="847" width="110" height="30" as="geometry">
            <mxRectangle x="140" y="890" width="180" height="130" as="alternateBounds" />
          </mxGeometry>
        </mxCell>
        <mxCell id="epjKOAO1mZUmwLJU23d0-5" value="+ createEntity(E): T;&lt;span style=&quot;background-color:#ffffff;padding:0px 0px 0px 2px;&quot;&gt;&lt;/span&gt;&lt;span style=&quot;background-color:#ffffff;padding:0px 0px 0px 2px;&quot;&gt;&lt;/span&gt;&lt;span style=&quot;background-color:#ffffff;padding:0px 0px 0px 2px;&quot;&gt;&lt;/span&gt;" style="text;strokeColor=none;fillColor=none;align=left;verticalAlign=top;spacingLeft=4;spacingRight=4;overflow=hidden;rotatable=0;points=[[0,0.5],[1,0.5]];portConstraint=eastwest;whiteSpace=wrap;html=1;" parent="epjKOAO1mZUmwLJU23d0-2" vertex="1">
          <mxGeometry y="26" width="180" height="26" as="geometry" />
        </mxCell>
        <mxCell id="epjKOAO1mZUmwLJU23d0-9" value="+ updateEntity(E): T;" style="text;strokeColor=none;fillColor=none;align=left;verticalAlign=top;spacingLeft=4;spacingRight=4;overflow=hidden;rotatable=0;points=[[0,0.5],[1,0.5]];portConstraint=eastwest;whiteSpace=wrap;html=1;" parent="epjKOAO1mZUmwLJU23d0-2" vertex="1">
          <mxGeometry y="52" width="180" height="26" as="geometry" />
        </mxCell>
        <mxCell id="epjKOAO1mZUmwLJU23d0-10" value="+ deleteEntity(E): T;" style="text;strokeColor=none;fillColor=none;align=left;verticalAlign=top;spacingLeft=4;spacingRight=4;overflow=hidden;rotatable=0;points=[[0,0.5],[1,0.5]];portConstraint=eastwest;whiteSpace=wrap;html=1;" parent="epjKOAO1mZUmwLJU23d0-2" vertex="1">
          <mxGeometry y="78" width="180" height="26" as="geometry" />
        </mxCell>
        <mxCell id="epjKOAO1mZUmwLJU23d0-11" value="+ getEntity(K): List&amp;lt;T&amp;gt;" style="text;strokeColor=none;fillColor=none;align=left;verticalAlign=top;spacingLeft=4;spacingRight=4;overflow=hidden;rotatable=0;points=[[0,0.5],[1,0.5]];portConstraint=eastwest;whiteSpace=wrap;html=1;" parent="epjKOAO1mZUmwLJU23d0-2" vertex="1">
          <mxGeometry y="104" width="180" height="26" as="geometry" />
        </mxCell>
        <mxCell id="epjKOAO1mZUmwLJU23d0-21" style="edgeStyle=orthogonalEdgeStyle;rounded=0;orthogonalLoop=1;jettySize=auto;html=1;entryX=1;entryY=0.5;entryDx=0;entryDy=0;" parent="1" source="epjKOAO1mZUmwLJU23d0-12" target="epjKOAO1mZUmwLJU23d0-2" edge="1">
          <mxGeometry relative="1" as="geometry" />
        </mxCell>
        <mxCell id="7jQxV3AR69AKT-Q-Qrzt-15" style="edgeStyle=orthogonalEdgeStyle;rounded=0;orthogonalLoop=1;jettySize=auto;html=1;" parent="1" source="epjKOAO1mZUmwLJU23d0-12" target="7jQxV3AR69AKT-Q-Qrzt-1" edge="1">
          <mxGeometry relative="1" as="geometry" />
        </mxCell>
        <mxCell id="epjKOAO1mZUmwLJU23d0-12" value="BlogService" style="swimlane;fontStyle=1;align=center;verticalAlign=top;childLayout=stackLayout;horizontal=1;startSize=26;horizontalStack=0;resizeParent=1;resizeParentMax=0;resizeLast=0;collapsible=1;marginBottom=0;whiteSpace=wrap;html=1;" parent="1" vertex="1" collapsed="1">
          <mxGeometry x="304" y="847" width="110" height="30" as="geometry">
            <mxRectangle x="380" y="930" width="160" height="130" as="alternateBounds" />
          </mxGeometry>
        </mxCell>
        <mxCell id="epjKOAO1mZUmwLJU23d0-16" value="+ createEntity(E): T;&lt;span style=&quot;background-color:#ffffff;padding:0px 0px 0px 2px;&quot;&gt;&lt;/span&gt;&lt;span style=&quot;background-color:#ffffff;padding:0px 0px 0px 2px;&quot;&gt;&lt;/span&gt;&lt;span style=&quot;background-color:#ffffff;padding:0px 0px 0px 2px;&quot;&gt;&lt;/span&gt;" style="text;strokeColor=none;fillColor=none;align=left;verticalAlign=top;spacingLeft=4;spacingRight=4;overflow=hidden;rotatable=0;points=[[0,0.5],[1,0.5]];portConstraint=eastwest;whiteSpace=wrap;html=1;" parent="epjKOAO1mZUmwLJU23d0-12" vertex="1">
          <mxGeometry y="26" width="160" height="26" as="geometry" />
        </mxCell>
        <mxCell id="epjKOAO1mZUmwLJU23d0-17" value="+ updateEntity(E): T;" style="text;strokeColor=none;fillColor=none;align=left;verticalAlign=top;spacingLeft=4;spacingRight=4;overflow=hidden;rotatable=0;points=[[0,0.5],[1,0.5]];portConstraint=eastwest;whiteSpace=wrap;html=1;" parent="epjKOAO1mZUmwLJU23d0-12" vertex="1">
          <mxGeometry y="52" width="160" height="26" as="geometry" />
        </mxCell>
        <mxCell id="epjKOAO1mZUmwLJU23d0-18" value="+ deleteEntity(E): T;" style="text;strokeColor=none;fillColor=none;align=left;verticalAlign=top;spacingLeft=4;spacingRight=4;overflow=hidden;rotatable=0;points=[[0,0.5],[1,0.5]];portConstraint=eastwest;whiteSpace=wrap;html=1;" parent="epjKOAO1mZUmwLJU23d0-12" vertex="1">
          <mxGeometry y="78" width="160" height="26" as="geometry" />
        </mxCell>
        <mxCell id="epjKOAO1mZUmwLJU23d0-19" value="+ getEntity(K): List&amp;lt;T&amp;gt;" style="text;strokeColor=none;fillColor=none;align=left;verticalAlign=top;spacingLeft=4;spacingRight=4;overflow=hidden;rotatable=0;points=[[0,0.5],[1,0.5]];portConstraint=eastwest;whiteSpace=wrap;html=1;" parent="epjKOAO1mZUmwLJU23d0-12" vertex="1">
          <mxGeometry y="104" width="160" height="26" as="geometry" />
        </mxCell>
        <mxCell id="epjKOAO1mZUmwLJU23d0-30" style="edgeStyle=orthogonalEdgeStyle;rounded=0;orthogonalLoop=1;jettySize=auto;html=1;" parent="1" source="epjKOAO1mZUmwLJU23d0-22" target="epjKOAO1mZUmwLJU23d0-12" edge="1">
          <mxGeometry relative="1" as="geometry" />
        </mxCell>
        <mxCell id="epjKOAO1mZUmwLJU23d0-22" value="BlogServiceImpl" style="swimlane;fontStyle=1;align=center;verticalAlign=top;childLayout=stackLayout;horizontal=1;startSize=26;horizontalStack=0;resizeParent=1;resizeParentMax=0;resizeLast=0;collapsible=1;marginBottom=0;whiteSpace=wrap;html=1;" parent="1" vertex="1">
          <mxGeometry x="610" y="780" width="160" height="164" as="geometry" />
        </mxCell>
        <mxCell id="epjKOAO1mZUmwLJU23d0-23" value="+ field: type" style="text;strokeColor=none;fillColor=none;align=left;verticalAlign=top;spacingLeft=4;spacingRight=4;overflow=hidden;rotatable=0;points=[[0,0.5],[1,0.5]];portConstraint=eastwest;whiteSpace=wrap;html=1;" parent="epjKOAO1mZUmwLJU23d0-22" vertex="1">
          <mxGeometry y="26" width="160" height="26" as="geometry" />
        </mxCell>
        <mxCell id="epjKOAO1mZUmwLJU23d0-24" value="" style="line;strokeWidth=1;fillColor=none;align=left;verticalAlign=middle;spacingTop=-1;spacingLeft=3;spacingRight=3;rotatable=0;labelPosition=right;points=[];portConstraint=eastwest;strokeColor=inherit;" parent="epjKOAO1mZUmwLJU23d0-22" vertex="1">
          <mxGeometry y="52" width="160" height="8" as="geometry" />
        </mxCell>
        <mxCell id="epjKOAO1mZUmwLJU23d0-26" value="+ createEntity(E): T;&lt;span style=&quot;background-color:#ffffff;padding:0px 0px 0px 2px;&quot;&gt;&lt;/span&gt;&lt;span style=&quot;background-color:#ffffff;padding:0px 0px 0px 2px;&quot;&gt;&lt;/span&gt;&lt;span style=&quot;background-color:#ffffff;padding:0px 0px 0px 2px;&quot;&gt;&lt;/span&gt;" style="text;strokeColor=none;fillColor=none;align=left;verticalAlign=top;spacingLeft=4;spacingRight=4;overflow=hidden;rotatable=0;points=[[0,0.5],[1,0.5]];portConstraint=eastwest;whiteSpace=wrap;html=1;" parent="epjKOAO1mZUmwLJU23d0-22" vertex="1">
          <mxGeometry y="60" width="160" height="26" as="geometry" />
        </mxCell>
        <mxCell id="epjKOAO1mZUmwLJU23d0-27" value="+ updateEntity(E): T;" style="text;strokeColor=none;fillColor=none;align=left;verticalAlign=top;spacingLeft=4;spacingRight=4;overflow=hidden;rotatable=0;points=[[0,0.5],[1,0.5]];portConstraint=eastwest;whiteSpace=wrap;html=1;" parent="epjKOAO1mZUmwLJU23d0-22" vertex="1">
          <mxGeometry y="86" width="160" height="26" as="geometry" />
        </mxCell>
        <mxCell id="epjKOAO1mZUmwLJU23d0-28" value="+ deleteEntity(E): T;" style="text;strokeColor=none;fillColor=none;align=left;verticalAlign=top;spacingLeft=4;spacingRight=4;overflow=hidden;rotatable=0;points=[[0,0.5],[1,0.5]];portConstraint=eastwest;whiteSpace=wrap;html=1;" parent="epjKOAO1mZUmwLJU23d0-22" vertex="1">
          <mxGeometry y="112" width="160" height="26" as="geometry" />
        </mxCell>
        <mxCell id="epjKOAO1mZUmwLJU23d0-29" value="+ getEntity(K): List&amp;lt;T&amp;gt;" style="text;strokeColor=none;fillColor=none;align=left;verticalAlign=top;spacingLeft=4;spacingRight=4;overflow=hidden;rotatable=0;points=[[0,0.5],[1,0.5]];portConstraint=eastwest;whiteSpace=wrap;html=1;" parent="epjKOAO1mZUmwLJU23d0-22" vertex="1">
          <mxGeometry y="138" width="160" height="26" as="geometry" />
        </mxCell>
        <mxCell id="7jQxV3AR69AKT-Q-Qrzt-1" value="&lt;font style=&quot;vertical-align: inherit;&quot;&gt;&lt;font style=&quot;vertical-align: inherit;&quot;&gt;Blog&lt;/font&gt;&lt;/font&gt;" style="swimlane;fontStyle=1;align=center;verticalAlign=top;childLayout=stackLayout;horizontal=1;startSize=26;horizontalStack=0;resizeParent=1;resizeParentMax=0;resizeLast=0;collapsible=1;marginBottom=0;whiteSpace=wrap;html=1;" parent="1" vertex="1" collapsed="1">
          <mxGeometry x="370" y="940" width="70" height="30" as="geometry">
            <mxRectangle x="140" y="1150" width="240" height="346" as="alternateBounds" />
          </mxGeometry>
        </mxCell>
        <mxCell id="7jQxV3AR69AKT-Q-Qrzt-2" value="&lt;font style=&quot;vertical-align: inherit;&quot;&gt;&lt;font style=&quot;vertical-align: inherit;&quot;&gt;- id: Long&lt;/font&gt;&lt;/font&gt;" style="text;strokeColor=none;fillColor=none;align=left;verticalAlign=top;spacingLeft=4;spacingRight=4;overflow=hidden;rotatable=0;points=[[0,0.5],[1,0.5]];portConstraint=eastwest;whiteSpace=wrap;html=1;" parent="7jQxV3AR69AKT-Q-Qrzt-1" vertex="1">
          <mxGeometry y="26" width="240" height="26" as="geometry" />
        </mxCell>
        <mxCell id="7jQxV3AR69AKT-Q-Qrzt-5" value="&lt;font style=&quot;vertical-align: inherit;&quot;&gt;&lt;font style=&quot;vertical-align: inherit;&quot;&gt;- title: String&lt;/font&gt;&lt;/font&gt;" style="text;strokeColor=none;fillColor=none;align=left;verticalAlign=top;spacingLeft=4;spacingRight=4;overflow=hidden;rotatable=0;points=[[0,0.5],[1,0.5]];portConstraint=eastwest;whiteSpace=wrap;html=1;" parent="7jQxV3AR69AKT-Q-Qrzt-1" vertex="1">
          <mxGeometry y="52" width="240" height="26" as="geometry" />
        </mxCell>
        <mxCell id="7jQxV3AR69AKT-Q-Qrzt-6" value="&lt;font style=&quot;vertical-align: inherit;&quot;&gt;&lt;font style=&quot;vertical-align: inherit;&quot;&gt;- contentBlog: String&lt;/font&gt;&lt;/font&gt;" style="text;strokeColor=none;fillColor=none;align=left;verticalAlign=top;spacingLeft=4;spacingRight=4;overflow=hidden;rotatable=0;points=[[0,0.5],[1,0.5]];portConstraint=eastwest;whiteSpace=wrap;html=1;" parent="7jQxV3AR69AKT-Q-Qrzt-1" vertex="1">
          <mxGeometry y="78" width="240" height="26" as="geometry" />
        </mxCell>
        <mxCell id="7jQxV3AR69AKT-Q-Qrzt-7" value="&lt;font style=&quot;vertical-align: inherit;&quot;&gt;&lt;font style=&quot;vertical-align: inherit;&quot;&gt;- created: LocalDateTime&lt;/font&gt;&lt;/font&gt;" style="text;strokeColor=none;fillColor=none;align=left;verticalAlign=top;spacingLeft=4;spacingRight=4;overflow=hidden;rotatable=0;points=[[0,0.5],[1,0.5]];portConstraint=eastwest;whiteSpace=wrap;html=1;" parent="7jQxV3AR69AKT-Q-Qrzt-1" vertex="1">
          <mxGeometry y="104" width="240" height="26" as="geometry" />
        </mxCell>
        <mxCell id="7jQxV3AR69AKT-Q-Qrzt-8" value="&lt;font style=&quot;vertical-align: inherit;&quot;&gt;&lt;font style=&quot;vertical-align: inherit;&quot;&gt;- enabled: boolean&lt;/font&gt;&lt;/font&gt;" style="text;strokeColor=none;fillColor=none;align=left;verticalAlign=top;spacingLeft=4;spacingRight=4;overflow=hidden;rotatable=0;points=[[0,0.5],[1,0.5]];portConstraint=eastwest;whiteSpace=wrap;html=1;" parent="7jQxV3AR69AKT-Q-Qrzt-1" vertex="1">
          <mxGeometry y="130" width="240" height="26" as="geometry" />
        </mxCell>
        <mxCell id="7jQxV3AR69AKT-Q-Qrzt-9" value="&lt;font style=&quot;vertical-align: inherit;&quot;&gt;&lt;font style=&quot;vertical-align: inherit;&quot;&gt;- type: Long&lt;/font&gt;&lt;/font&gt;" style="text;strokeColor=none;fillColor=none;align=left;verticalAlign=top;spacingLeft=4;spacingRight=4;overflow=hidden;rotatable=0;points=[[0,0.5],[1,0.5]];portConstraint=eastwest;whiteSpace=wrap;html=1;" parent="7jQxV3AR69AKT-Q-Qrzt-1" vertex="1">
          <mxGeometry y="156" width="240" height="26" as="geometry" />
        </mxCell>
        <mxCell id="7jQxV3AR69AKT-Q-Qrzt-10" value="&lt;font style=&quot;vertical-align: inherit;&quot;&gt;&lt;font style=&quot;vertical-align: inherit;&quot;&gt;- category: String&lt;/font&gt;&lt;/font&gt;" style="text;strokeColor=none;fillColor=none;align=left;verticalAlign=top;spacingLeft=4;spacingRight=4;overflow=hidden;rotatable=0;points=[[0,0.5],[1,0.5]];portConstraint=eastwest;whiteSpace=wrap;html=1;" parent="7jQxV3AR69AKT-Q-Qrzt-1" vertex="1">
          <mxGeometry y="182" width="240" height="26" as="geometry" />
        </mxCell>
        <mxCell id="7jQxV3AR69AKT-Q-Qrzt-11" value="&lt;font style=&quot;vertical-align: inherit;&quot;&gt;&lt;font style=&quot;vertical-align: inherit;&quot;&gt;- linksRepository: HashMap&amp;lt;Long,String&amp;gt;&lt;/font&gt;&lt;/font&gt;" style="text;strokeColor=none;fillColor=none;align=left;verticalAlign=top;spacingLeft=4;spacingRight=4;overflow=hidden;rotatable=0;points=[[0,0.5],[1,0.5]];portConstraint=eastwest;whiteSpace=wrap;html=1;" parent="7jQxV3AR69AKT-Q-Qrzt-1" vertex="1">
          <mxGeometry y="208" width="240" height="26" as="geometry" />
        </mxCell>
        <mxCell id="7jQxV3AR69AKT-Q-Qrzt-12" value="&lt;font style=&quot;vertical-align: inherit;&quot;&gt;&lt;font style=&quot;vertical-align: inherit;&quot;&gt;- images: HashMap&amp;lt;Long,String&amp;gt;&lt;/font&gt;&lt;/font&gt;" style="text;strokeColor=none;fillColor=none;align=left;verticalAlign=top;spacingLeft=4;spacingRight=4;overflow=hidden;rotatable=0;points=[[0,0.5],[1,0.5]];portConstraint=eastwest;whiteSpace=wrap;html=1;" parent="7jQxV3AR69AKT-Q-Qrzt-1" vertex="1">
          <mxGeometry y="234" width="240" height="26" as="geometry" />
        </mxCell>
        <mxCell id="7jQxV3AR69AKT-Q-Qrzt-13" value="&lt;font style=&quot;vertical-align: inherit;&quot;&gt;&lt;font style=&quot;vertical-align: inherit;&quot;&gt;- examplesCode: HashMap&amp;lt;Long,String&amp;gt;&lt;/font&gt;&lt;/font&gt;" style="text;strokeColor=none;fillColor=none;align=left;verticalAlign=top;spacingLeft=4;spacingRight=4;overflow=hidden;rotatable=0;points=[[0,0.5],[1,0.5]];portConstraint=eastwest;whiteSpace=wrap;html=1;" parent="7jQxV3AR69AKT-Q-Qrzt-1" vertex="1">
          <mxGeometry y="260" width="240" height="26" as="geometry" />
        </mxCell>
        <mxCell id="7jQxV3AR69AKT-Q-Qrzt-14" value="&lt;font style=&quot;vertical-align: inherit;&quot;&gt;&lt;font style=&quot;vertical-align: inherit;&quot;&gt;- linksBibliografy: HashMap&amp;lt;Long,String&amp;gt;&lt;/font&gt;&lt;/font&gt;" style="text;strokeColor=none;fillColor=none;align=left;verticalAlign=top;spacingLeft=4;spacingRight=4;overflow=hidden;rotatable=0;points=[[0,0.5],[1,0.5]];portConstraint=eastwest;whiteSpace=wrap;html=1;" parent="7jQxV3AR69AKT-Q-Qrzt-1" vertex="1">
          <mxGeometry y="286" width="240" height="26" as="geometry" />
        </mxCell>
        <mxCell id="7jQxV3AR69AKT-Q-Qrzt-3" value="" style="line;strokeWidth=1;fillColor=none;align=left;verticalAlign=middle;spacingTop=-1;spacingLeft=3;spacingRight=3;rotatable=0;labelPosition=right;points=[];portConstraint=eastwest;strokeColor=inherit;" parent="7jQxV3AR69AKT-Q-Qrzt-1" vertex="1">
          <mxGeometry y="312" width="240" height="8" as="geometry" />
        </mxCell>
        <mxCell id="7jQxV3AR69AKT-Q-Qrzt-4" value="&lt;font style=&quot;vertical-align: inherit;&quot;&gt;&lt;font style=&quot;vertical-align: inherit;&quot;&gt;&lt;font style=&quot;vertical-align: inherit;&quot;&gt;&lt;font style=&quot;vertical-align: inherit;&quot;&gt;Blog(): Blog&lt;/font&gt;&lt;/font&gt;&lt;/font&gt;&lt;/font&gt;" style="text;strokeColor=none;fillColor=none;align=left;verticalAlign=top;spacingLeft=4;spacingRight=4;overflow=hidden;rotatable=0;points=[[0,0.5],[1,0.5]];portConstraint=eastwest;whiteSpace=wrap;html=1;" parent="7jQxV3AR69AKT-Q-Qrzt-1" vertex="1">
          <mxGeometry y="320" width="240" height="26" as="geometry" />
        </mxCell>
        <mxCell id="7jQxV3AR69AKT-Q-Qrzt-17" value="&lt;p style=&quot;line-height: 120%;&quot;&gt;&lt;font style=&quot;font-size: 15px;&quot;&gt;core&lt;/font&gt;&lt;/p&gt;" style="text;align=center;fontStyle=1;verticalAlign=middle;spacingLeft=3;spacingRight=3;strokeColor=none;rotatable=0;points=[[0,0.5],[1,0.5]];portConstraint=eastwest;html=1;" parent="1" vertex="1">
          <mxGeometry x="224" y="790" width="86" height="26" as="geometry" />
        </mxCell>
        <mxCell id="nNKmnN2GhU8pVGA1z2Ap-1" value="BlogController" style="swimlane;fontStyle=1;align=center;verticalAlign=top;childLayout=stackLayout;horizontal=1;startSize=26;horizontalStack=0;resizeParent=1;resizeParentMax=0;resizeLast=0;collapsible=1;marginBottom=0;whiteSpace=wrap;html=1;" vertex="1" parent="1">
          <mxGeometry x="414" y="550" width="190" height="190" as="geometry" />
        </mxCell>
        <mxCell id="nNKmnN2GhU8pVGA1z2Ap-2" value="- blogService: BlogService" style="text;strokeColor=none;fillColor=none;align=left;verticalAlign=top;spacingLeft=4;spacingRight=4;overflow=hidden;rotatable=0;points=[[0,0.5],[1,0.5]];portConstraint=eastwest;whiteSpace=wrap;html=1;" vertex="1" parent="nNKmnN2GhU8pVGA1z2Ap-1">
          <mxGeometry y="26" width="190" height="26" as="geometry" />
        </mxCell>
        <mxCell id="nNKmnN2GhU8pVGA1z2Ap-3" value="" style="line;strokeWidth=1;fillColor=none;align=left;verticalAlign=middle;spacingTop=-1;spacingLeft=3;spacingRight=3;rotatable=0;labelPosition=right;points=[];portConstraint=eastwest;strokeColor=inherit;" vertex="1" parent="nNKmnN2GhU8pVGA1z2Ap-1">
          <mxGeometry y="52" width="190" height="8" as="geometry" />
        </mxCell>
        <mxCell id="nNKmnN2GhU8pVGA1z2Ap-4" value="+ getAllBlog(): List&amp;lt;BlogDto&amp;gt;&lt;span style=&quot;background-color:#ffffff;padding:0px 0px 0px 2px;&quot;&gt;&lt;/span&gt;&lt;span style=&quot;background-color:#ffffff;padding:0px 0px 0px 2px;&quot;&gt;&lt;/span&gt;&lt;span style=&quot;background-color:#ffffff;padding:0px 0px 0px 2px;&quot;&gt;&lt;/span&gt;&lt;span style=&quot;background-color:#ffffff;padding:0px 0px 0px 2px;&quot;&gt;&lt;/span&gt;" style="text;strokeColor=none;fillColor=none;align=left;verticalAlign=top;spacingLeft=4;spacingRight=4;overflow=hidden;rotatable=0;points=[[0,0.5],[1,0.5]];portConstraint=eastwest;whiteSpace=wrap;html=1;" vertex="1" parent="nNKmnN2GhU8pVGA1z2Ap-1">
          <mxGeometry y="60" width="190" height="26" as="geometry" />
        </mxCell>
        <mxCell id="nNKmnN2GhU8pVGA1z2Ap-5" value="+ getBlog(Long): BlogDto&lt;span style=&quot;background-color:#ffffff;padding:0px 0px 0px 2px;&quot;&gt;&lt;/span&gt;&lt;span style=&quot;background-color:#ffffff;padding:0px 0px 0px 2px;&quot;&gt;&lt;/span&gt;&lt;span style=&quot;background-color:#ffffff;padding:0px 0px 0px 2px;&quot;&gt;&lt;/span&gt;&lt;span style=&quot;background-color:#ffffff;padding:0px 0px 0px 2px;&quot;&gt;&lt;/span&gt;" style="text;strokeColor=none;fillColor=none;align=left;verticalAlign=top;spacingLeft=4;spacingRight=4;overflow=hidden;rotatable=0;points=[[0,0.5],[1,0.5]];portConstraint=eastwest;whiteSpace=wrap;html=1;" vertex="1" parent="nNKmnN2GhU8pVGA1z2Ap-1">
          <mxGeometry y="86" width="190" height="26" as="geometry" />
        </mxCell>
        <mxCell id="nNKmnN2GhU8pVGA1z2Ap-6" value="+ createBlog(BlogDto): BlogDto&lt;span style=&quot;background-color:#ffffff;padding:0px 0px 0px 2px;&quot;&gt;&lt;/span&gt;&lt;span style=&quot;background-color:#ffffff;padding:0px 0px 0px 2px;&quot;&gt;&lt;/span&gt;&lt;span style=&quot;background-color:#ffffff;padding:0px 0px 0px 2px;&quot;&gt;&lt;/span&gt;&lt;span style=&quot;background-color:#ffffff;padding:0px 0px 0px 2px;&quot;&gt;&lt;/span&gt;" style="text;strokeColor=none;fillColor=none;align=left;verticalAlign=top;spacingLeft=4;spacingRight=4;overflow=hidden;rotatable=0;points=[[0,0.5],[1,0.5]];portConstraint=eastwest;whiteSpace=wrap;html=1;" vertex="1" parent="nNKmnN2GhU8pVGA1z2Ap-1">
          <mxGeometry y="112" width="190" height="26" as="geometry" />
        </mxCell>
        <mxCell id="nNKmnN2GhU8pVGA1z2Ap-7" value="+ updateBlog(BlogDto): BlogDto&lt;span style=&quot;background-color:#ffffff;padding:0px 0px 0px 2px;&quot;&gt;&lt;/span&gt;&lt;span style=&quot;background-color:#ffffff;padding:0px 0px 0px 2px;&quot;&gt;&lt;/span&gt;&lt;span style=&quot;background-color:#ffffff;padding:0px 0px 0px 2px;&quot;&gt;&lt;/span&gt;&lt;span style=&quot;background-color:#ffffff;padding:0px 0px 0px 2px;&quot;&gt;&lt;/span&gt;" style="text;strokeColor=none;fillColor=none;align=left;verticalAlign=top;spacingLeft=4;spacingRight=4;overflow=hidden;rotatable=0;points=[[0,0.5],[1,0.5]];portConstraint=eastwest;whiteSpace=wrap;html=1;" vertex="1" parent="nNKmnN2GhU8pVGA1z2Ap-1">
          <mxGeometry y="138" width="190" height="26" as="geometry" />
        </mxCell>
        <mxCell id="nNKmnN2GhU8pVGA1z2Ap-8" value="+ deleteBlog(Long): void&lt;span style=&quot;background-color:#ffffff;padding:0px 0px 0px 2px;&quot;&gt;&lt;/span&gt;" style="text;strokeColor=none;fillColor=none;align=left;verticalAlign=top;spacingLeft=4;spacingRight=4;overflow=hidden;rotatable=0;points=[[0,0.5],[1,0.5]];portConstraint=eastwest;whiteSpace=wrap;html=1;" vertex="1" parent="nNKmnN2GhU8pVGA1z2Ap-1">
          <mxGeometry y="164" width="190" height="26" as="geometry" />
        </mxCell>
        <mxCell id="nNKmnN2GhU8pVGA1z2Ap-9" style="edgeStyle=orthogonalEdgeStyle;rounded=0;orthogonalLoop=1;jettySize=auto;html=1;" edge="1" parent="1" source="nNKmnN2GhU8pVGA1z2Ap-5" target="epjKOAO1mZUmwLJU23d0-12">
          <mxGeometry relative="1" as="geometry" />
        </mxCell>
      </root>
    </mxGraphModel>
  </diagram>
</mxfile>
